<svg id="Layer_1" data-name="Layer 1" xmlns="http://www.w3.org/2000/svg" viewBox="0 0 942.25 191.52"><defs><style>.cls-1,.cls-2{font-size:180px;font-family:Keep-Cheese, Keep Cheese;}.cls-1,.cls-3{fill:blue;}.cls-2{fill:#f9f9f9;}</style></defs><title>LOGO</title><text class="cls-1" transform="translate(76.12 155.16)">DHA7AKNA</text><text class="cls-2" transform="translate(87.12 155.16)">DHA7AKNA</text><path class="cls-3" d="M197.47,689.11c-3.24-.72-6.66-2.34-8.64-5a10.39,10.39,0,0,1-2.52-5.76,14.14,14.14,0,0,1,2.7-9.18,18.77,18.77,0,0,1,9.9-6.66,40.32,40.32,0,0,1,12.24-1.8c11,0,22,1.08,32.4,4.5a3.06,3.06,0,0,1,1.8,1.08c3.78,1.62,9.72,5,9.18,9.18-.18,2-2.52,3.42-4.32,4.14-6.84,2.52-14,3.78-21.24,5.4-6.48,1.44-13,3.42-19.62,4.32C205.39,689.65,201.43,690,197.47,689.11Z" transform="translate(-186.29 -579.65)"/><path class="cls-3" d="M217.81,719.53c-.9-3.06,1.08-6.66,3.24-9a38.34,38.34,0,0,1,11.16-8.28c1.26-.54,2.34-1.26,3.42-1.8a19.36,19.36,0,0,1,9-1.44c4,.18,9.9.18,9,4-.72,2.88-7.74,9-9.9,11-4.86,4.32-10.44,8.46-16.74,9.72C223.21,724.57,218.71,723.31,217.81,719.53Z" transform="translate(-186.29 -579.65)"/><path class="cls-3" d="M1111.47,689.65c-8.82,0-17.1-2.88-25.56-4.68-7.2-1.62-14.4-2.88-21.24-5.4-1.8-.72-4.14-2.16-4.5-4.14-.36-4.14,5.4-7.56,9.18-9.18.16,0,.75-.56,1-.69a.88.88,0,0,1,.15,0c1.36-.56,6.93-2.08,8.31-2.47l.17,0a113.84,113.84,0,0,1,20.61-2.33c6.84-.18,14.4.36,20.52,3.6,8.1,4.14,11.52,14.4,5,20.88C1121.73,688.57,1116.33,689.65,1111.47,689.65Z" transform="translate(-186.29 -579.65)"/><path class="cls-3" d="M1071.51,714.13a76.74,76.74,0,0,1-7.74-7.56c-.72-.9-2.7-3.42-2.52-4.5.18-1.44,2.16-2.34,3.6-2.52a25.89,25.89,0,0,1,13.86.72c.9.36,5.58,2.88,6.48,3.42a51.51,51.51,0,0,1,8.64,6.84c3.42,3.6,5.22,9.54.9,12.24C1088.07,727.09,1077.27,719.35,1071.51,714.13Z" transform="translate(-186.29 -579.65)"/></svg>